{"asset":{"version":"2.0","generator":"babylon.js glTF exporter for 3dsmax 2021 v20210624.1"},"extensionsUsed":["KHR_texture_transform"],"extensionsRequired":["KHR_texture_transform"],"scene":0,"scenes":[{"nodes":[0]}],"nodes":[{"mesh":0,"translation":[0.00355517585,0.0,-0.002593262],"name":"Group6858"}],"meshes":[{"primitives":[{"attributes":{"POSITION":1,"NORMAL":2,"TEXCOORD_0":3},"indices":0,"material":0}],"name":"Group6858"}],"accessors":[{"bufferView":0,"componentType":5123,"count":18048,"type":"SCALAR","name":"accessorIndices"},{"bufferView":1,"componentType":5126,"count":18048,"max":[0.00375797739,0.008460685,0.00487380475],"min":[-0.0106420061,-0.0164381135,-0.00198529288],"type":"VEC3","name":"accessorPositions"},{"bufferView":1,"byteOffset":216576,"componentType":5126,"count":18048,"type":"VEC3","name":"accessorNormals"},{"bufferView":2,"componentType":5126,"count":18048,"type":"VEC2","name":"accessorUVs"}],"bufferViews":[{"buffer":0,"byteLength":36096,"name":"bufferViewScalar"},{"buffer":0,"byteOffset":36096,"byteLength":433152,"byteStride":12,"name":"bufferViewFloatVec3"},{"buffer":0,"byteOffset":469248,"byteLength":144384,"byteStride":8,"name":"bufferViewFloatVec2"}],"buffers":[{"uri":"01-10.bin","byteLength":613632}],"materials":[{"pbrMetallicRoughness":{"baseColorTexture":{"index":0,"extensions":{"KHR_texture_transform":{"texCoord":0}}},"metallicFactor":0.0,"roughnessFactor":0.7022211},"name":"01-10_defaultMat"}],"textures":[{"sampler":0,"source":0,"name":"01-10.jpg"}],"images":[{"uri":"01-10.jpg"}],"samplers":[{"magFilter":9729,"minFilter":9987}]}