{"asset":{"version":"2.0","generator":"babylon.js glTF exporter for 3dsmax 2021 v20210624.1"},"extensionsUsed":["KHR_texture_transform"],"extensionsRequired":["KHR_texture_transform"],"scene":0,"scenes":[{"nodes":[0]}],"nodes":[{"mesh":0,"translation":[0.0006977539,0.0,-0.00168432621],"name":"Group38937"}],"meshes":[{"primitives":[{"attributes":{"POSITION":1,"NORMAL":2,"TEXCOORD_0":3},"indices":0,"material":0}],"name":"Group38937"}],"accessors":[{"bufferView":0,"componentType":5123,"count":17982,"type":"SCALAR","name":"accessorIndices"},{"bufferView":1,"componentType":5126,"count":17982,"max":[0.00317570451,0.008780285,0.00317641627],"min":[-0.010953404,-0.007915617,-0.00230196561],"type":"VEC3","name":"accessorPositions"},{"bufferView":1,"byteOffset":215784,"componentType":5126,"count":17982,"type":"VEC3","name":"accessorNormals"},{"bufferView":2,"componentType":5126,"count":17982,"type":"VEC2","name":"accessorUVs"}],"bufferViews":[{"buffer":0,"byteLength":35964,"name":"bufferViewScalar"},{"buffer":0,"byteOffset":35964,"byteLength":431568,"byteStride":12,"name":"bufferViewFloatVec3"},{"buffer":0,"byteOffset":467532,"byteLength":143856,"byteStride":8,"name":"bufferViewFloatVec2"}],"buffers":[{"uri":"01-6.bin","byteLength":611388}],"materials":[{"pbrMetallicRoughness":{"baseColorTexture":{"index":0,"extensions":{"KHR_texture_transform":{"texCoord":0}}},"metallicFactor":0.0,"roughnessFactor":0.7022211},"name":"01-6_defaultMat"}],"textures":[{"sampler":0,"source":0,"name":"01-6.jpg"}],"images":[{"uri":"01-6.jpg"}],"samplers":[{"magFilter":9729,"minFilter":9987}]}