{"asset":{"version":"2.0","generator":"babylon.js glTF exporter for 3dsmax 2021 v20210624.1"},"extensionsUsed":["KHR_texture_transform"],"extensionsRequired":["KHR_texture_transform"],"scene":0,"scenes":[{"nodes":[0]}],"nodes":[{"mesh":0,"translation":[0.00672241254,0.0,-0.00438061543],"name":"Group51234"}],"meshes":[{"primitives":[{"attributes":{"POSITION":1,"NORMAL":2,"TEXCOORD_0":3},"indices":0,"material":0}],"name":"Group51234"}],"accessors":[{"bufferView":0,"componentType":5123,"count":18006,"type":"SCALAR","name":"accessorIndices"},{"bufferView":1,"componentType":5126,"count":18006,"max":[0.00527094,0.0153160347,0.006088199],"min":[-0.0140090249,-0.0132983234,-0.00124381355],"type":"VEC3","name":"accessorPositions"},{"bufferView":1,"byteOffset":216072,"componentType":5126,"count":18006,"type":"VEC3","name":"accessorNormals"},{"bufferView":2,"componentType":5126,"count":18006,"type":"VEC2","name":"accessorUVs"}],"bufferViews":[{"buffer":0,"byteLength":36012,"name":"bufferViewScalar"},{"buffer":0,"byteOffset":36012,"byteLength":432144,"byteStride":12,"name":"bufferViewFloatVec3"},{"buffer":0,"byteOffset":468156,"byteLength":144048,"byteStride":8,"name":"bufferViewFloatVec2"}],"buffers":[{"uri":"02-10.bin","byteLength":612204}],"materials":[{"pbrMetallicRoughness":{"baseColorTexture":{"index":0,"extensions":{"KHR_texture_transform":{"texCoord":0}}},"metallicFactor":0.0,"roughnessFactor":0.7022211},"name":"02-10_defaultMat"}],"textures":[{"sampler":0,"source":0,"name":"02-10.jpg"}],"images":[{"uri":"02-10.jpg"}],"samplers":[{"magFilter":9729,"minFilter":9987}]}