{"asset":{"version":"2.0","generator":"babylon.js glTF exporter for 3dsmax 2021 v20210624.1"},"extensionsUsed":["KHR_texture_transform"],"extensionsRequired":["KHR_texture_transform"],"scene":0,"scenes":[{"nodes":[0]}],"nodes":[{"mesh":0,"translation":[0.00154223642,0.0,-0.00390991243],"name":"Group48287"}],"meshes":[{"primitives":[{"attributes":{"POSITION":1,"NORMAL":2,"TEXCOORD_0":3},"indices":0,"material":0}],"name":"Group48287"}],"accessors":[{"bufferView":0,"componentType":5123,"count":18000,"type":"SCALAR","name":"accessorIndices"},{"bufferView":1,"componentType":5126,"count":18000,"max":[0.0102842553,0.0115076844,0.009447467],"min":[-0.0107025951,-0.009626734,-0.00208421028],"type":"VEC3","name":"accessorPositions"},{"bufferView":1,"byteOffset":216000,"componentType":5126,"count":18000,"type":"VEC3","name":"accessorNormals"},{"bufferView":2,"componentType":5126,"count":18000,"type":"VEC2","name":"accessorUVs"}],"bufferViews":[{"buffer":0,"byteLength":36000,"name":"bufferViewScalar"},{"buffer":0,"byteOffset":36000,"byteLength":432000,"byteStride":12,"name":"bufferViewFloatVec3"},{"buffer":0,"byteOffset":468000,"byteLength":144000,"byteStride":8,"name":"bufferViewFloatVec2"}],"buffers":[{"uri":"02-2.bin","byteLength":612000}],"materials":[{"pbrMetallicRoughness":{"baseColorTexture":{"index":0,"extensions":{"KHR_texture_transform":{"texCoord":0}}},"metallicFactor":0.0,"roughnessFactor":0.7022211},"name":"02-2_defaultMat"}],"textures":[{"sampler":0,"source":0,"name":"02-2.jpg"}],"images":[{"uri":"02-2.jpg"}],"samplers":[{"magFilter":9729,"minFilter":9987}]}