{"asset":{"version":"2.0","generator":"babylon.js glTF exporter for 3dsmax 2021 v20210624.1"},"extensionsUsed":["KHR_texture_transform"],"extensionsRequired":["KHR_texture_transform"],"scene":0,"scenes":[{"nodes":[0]}],"nodes":[{"mesh":0,"translation":[0.00395678729,0.0,-0.00149414071],"name":"Group23141"}],"meshes":[{"primitives":[{"attributes":{"POSITION":1,"NORMAL":2,"TEXCOORD_0":3},"indices":0,"material":0}],"name":"Group23141"}],"accessors":[{"bufferView":0,"componentType":5123,"count":17976,"type":"SCALAR","name":"accessorIndices"},{"bufferView":1,"componentType":5126,"count":17976,"max":[0.0047648577,0.008017486,0.005905691],"min":[-0.010857231,-0.0100912731,-0.0015960111],"type":"VEC3","name":"accessorPositions"},{"bufferView":1,"byteOffset":215712,"componentType":5126,"count":17976,"type":"VEC3","name":"accessorNormals"},{"bufferView":2,"componentType":5126,"count":17976,"type":"VEC2","name":"accessorUVs"}],"bufferViews":[{"buffer":0,"byteLength":35952,"name":"bufferViewScalar"},{"buffer":0,"byteOffset":35952,"byteLength":431424,"byteStride":12,"name":"bufferViewFloatVec3"},{"buffer":0,"byteOffset":467376,"byteLength":143808,"byteStride":8,"name":"bufferViewFloatVec2"}],"buffers":[{"uri":"02-5.bin","byteLength":611184}],"materials":[{"pbrMetallicRoughness":{"baseColorTexture":{"index":0,"extensions":{"KHR_texture_transform":{"texCoord":0}}},"metallicFactor":0.0,"roughnessFactor":0.7022211},"name":"02-5_defaultMat"}],"textures":[{"sampler":0,"source":0,"name":"02-5.jpg"}],"images":[{"uri":"02-5.jpg"}],"samplers":[{"magFilter":9729,"minFilter":9987}]}