{"asset":{"version":"2.0","generator":"babylon.js glTF exporter for 3dsmax 2021 v20210624.1"},"extensionsUsed":["KHR_texture_transform"],"extensionsRequired":["KHR_texture_transform"],"scene":0,"scenes":[{"nodes":[0]}],"nodes":[{"mesh":0,"translation":[0.00181835948,0.0,0.0008293457],"name":"Group13299"}],"meshes":[{"primitives":[{"attributes":{"POSITION":1,"NORMAL":2,"TEXCOORD_0":3},"indices":0,"material":0}],"name":"Group13299"}],"accessors":[{"bufferView":0,"componentType":5123,"count":18024,"type":"SCALAR","name":"accessorIndices"},{"bufferView":1,"componentType":5126,"count":18024,"max":[0.0152457366,0.0123696728,0.00661993353],"min":[-0.004769893,-0.0175891537,-0.00174566277],"type":"VEC3","name":"accessorPositions"},{"bufferView":1,"byteOffset":216288,"componentType":5126,"count":18024,"type":"VEC3","name":"accessorNormals"},{"bufferView":2,"componentType":5126,"count":18024,"type":"VEC2","name":"accessorUVs"}],"bufferViews":[{"buffer":0,"byteLength":36048,"name":"bufferViewScalar"},{"buffer":0,"byteOffset":36048,"byteLength":432576,"byteStride":12,"name":"bufferViewFloatVec3"},{"buffer":0,"byteOffset":468624,"byteLength":144192,"byteStride":8,"name":"bufferViewFloatVec2"}],"buffers":[{"uri":"03-2.bin","byteLength":612816}],"materials":[{"pbrMetallicRoughness":{"baseColorTexture":{"index":0,"extensions":{"KHR_texture_transform":{"texCoord":0}}},"metallicFactor":0.0,"roughnessFactor":0.7022211},"name":"03-2_defaultMat"}],"textures":[{"sampler":0,"source":0,"name":"03-2.jpg"}],"images":[{"uri":"03-2.jpg"}],"samplers":[{"magFilter":9729,"minFilter":9987}]}