{"asset":{"version":"2.0","generator":"babylon.js glTF exporter for 3dsmax 2021 v20210624.1"},"extensionsUsed":["KHR_texture_transform"],"extensionsRequired":["KHR_texture_transform"],"scene":0,"scenes":[{"nodes":[0]}],"nodes":[{"mesh":0,"translation":[-0.000833007856,0.0,0.00317236315],"name":"Group22588"}],"meshes":[{"primitives":[{"attributes":{"POSITION":1,"NORMAL":2,"TEXCOORD_0":3},"indices":0,"material":0}],"name":"Group22588"}],"accessors":[{"bufferView":0,"componentType":5123,"count":17988,"type":"SCALAR","name":"accessorIndices"},{"bufferView":1,"componentType":5126,"count":17988,"max":[0.0118765822,0.0128490971,0.00625264365],"min":[-0.009031322,-0.007432261,-0.00303326966],"type":"VEC3","name":"accessorPositions"},{"bufferView":1,"byteOffset":215856,"componentType":5126,"count":17988,"type":"VEC3","name":"accessorNormals"},{"bufferView":2,"componentType":5126,"count":17988,"type":"VEC2","name":"accessorUVs"}],"bufferViews":[{"buffer":0,"byteLength":35976,"name":"bufferViewScalar"},{"buffer":0,"byteOffset":35976,"byteLength":431712,"byteStride":12,"name":"bufferViewFloatVec3"},{"buffer":0,"byteOffset":467688,"byteLength":143904,"byteStride":8,"name":"bufferViewFloatVec2"}],"buffers":[{"uri":"03-6.bin","byteLength":611592}],"materials":[{"pbrMetallicRoughness":{"baseColorTexture":{"index":0,"extensions":{"KHR_texture_transform":{"texCoord":0}}},"metallicFactor":0.0,"roughnessFactor":0.7022211},"name":"03-6_defaultMat"}],"textures":[{"sampler":0,"source":0,"name":"03-6.jpg"}],"images":[{"uri":"03-6.jpg"}],"samplers":[{"magFilter":9729,"minFilter":9987}]}