{"asset":{"version":"2.0","generator":"babylon.js glTF exporter for 3dsmax 2021 v20210624.1"},"extensionsUsed":["KHR_texture_transform"],"extensionsRequired":["KHR_texture_transform"],"scene":0,"scenes":[{"nodes":[0]}],"nodes":[{"mesh":0,"translation":[-0.00207324233,0.0,0.00370825245],"name":"Group60213"}],"meshes":[{"primitives":[{"attributes":{"POSITION":1,"NORMAL":2,"TEXCOORD_0":3},"indices":0,"material":0}],"name":"Group60213"}],"accessors":[{"bufferView":0,"componentType":5123,"count":17994,"type":"SCALAR","name":"accessorIndices"},{"bufferView":1,"componentType":5126,"count":17994,"max":[0.0118445065,0.0111622857,0.006698375],"min":[-0.00651778653,-0.00227400614,-0.000248254219],"type":"VEC3","name":"accessorPositions"},{"bufferView":1,"byteOffset":215928,"componentType":5126,"count":17994,"type":"VEC3","name":"accessorNormals"},{"bufferView":2,"componentType":5126,"count":17994,"type":"VEC2","name":"accessorUVs"}],"bufferViews":[{"buffer":0,"byteLength":35988,"name":"bufferViewScalar"},{"buffer":0,"byteOffset":35988,"byteLength":431856,"byteStride":12,"name":"bufferViewFloatVec3"},{"buffer":0,"byteOffset":467844,"byteLength":143952,"byteStride":8,"name":"bufferViewFloatVec2"}],"buffers":[{"uri":"04-2.bin","byteLength":611796}],"materials":[{"pbrMetallicRoughness":{"baseColorTexture":{"index":0,"extensions":{"KHR_texture_transform":{"texCoord":0}}},"metallicFactor":0.0,"roughnessFactor":0.7022211},"name":"04-2_defaultMat"}],"textures":[{"sampler":0,"source":0,"name":"04-2.jpg"}],"images":[{"uri":"04-2.jpg"}],"samplers":[{"magFilter":9729,"minFilter":9987}]}