{"asset":{"version":"2.0","generator":"babylon.js glTF exporter for 3dsmax 2021 v20210624.1"},"extensionsUsed":["KHR_texture_transform"],"extensionsRequired":["KHR_texture_transform"],"scene":0,"scenes":[{"nodes":[0]}],"nodes":[{"mesh":0,"translation":[-0.000231689468,0.0,0.00399414124],"name":"Group43267"}],"meshes":[{"primitives":[{"attributes":{"POSITION":1,"NORMAL":2,"TEXCOORD_0":3},"indices":0,"material":0}],"name":"Group43267"}],"accessors":[{"bufferView":0,"componentType":5123,"count":18156,"type":"SCALAR","name":"accessorIndices"},{"bufferView":1,"componentType":5126,"count":18156,"max":[0.0136901094,0.0270132367,0.00457724836],"min":[-0.0112987794,-0.0170409717,-0.004565124],"type":"VEC3","name":"accessorPositions"},{"bufferView":1,"byteOffset":217872,"componentType":5126,"count":18156,"type":"VEC3","name":"accessorNormals"},{"bufferView":2,"componentType":5126,"count":18156,"type":"VEC2","name":"accessorUVs"}],"bufferViews":[{"buffer":0,"byteLength":36312,"name":"bufferViewScalar"},{"buffer":0,"byteOffset":36312,"byteLength":435744,"byteStride":12,"name":"bufferViewFloatVec3"},{"buffer":0,"byteOffset":472056,"byteLength":145248,"byteStride":8,"name":"bufferViewFloatVec2"}],"buffers":[{"uri":"04-3.bin","byteLength":617304}],"materials":[{"pbrMetallicRoughness":{"baseColorTexture":{"index":0,"extensions":{"KHR_texture_transform":{"texCoord":0}}},"metallicFactor":0.0,"roughnessFactor":0.7022211},"name":"04-3_defaultMat"}],"textures":[{"sampler":0,"source":0,"name":"04-3.jpg"}],"images":[{"uri":"04-3.jpg"}],"samplers":[{"magFilter":9729,"minFilter":9987}]}