{"asset":{"version":"2.0","generator":"babylon.js glTF exporter for 3dsmax 2021 v20210624.1"},"extensionsUsed":["KHR_texture_transform"],"extensionsRequired":["KHR_texture_transform"],"scene":0,"scenes":[{"nodes":[0]}],"nodes":[{"mesh":0,"translation":[-0.00156420912,0.0,0.00413574232],"name":"Group43336"}],"meshes":[{"primitives":[{"attributes":{"POSITION":1,"NORMAL":2,"TEXCOORD_0":3},"indices":0,"material":0}],"name":"Group43336"}],"accessors":[{"bufferView":0,"componentType":5123,"count":18018,"type":"SCALAR","name":"accessorIndices"},{"bufferView":1,"componentType":5126,"count":18018,"max":[0.009254489,0.0125742471,0.00635212148],"min":[-0.007634726,-0.0101504251,-0.00103340263],"type":"VEC3","name":"accessorPositions"},{"bufferView":1,"byteOffset":216216,"componentType":5126,"count":18018,"type":"VEC3","name":"accessorNormals"},{"bufferView":2,"componentType":5126,"count":18018,"type":"VEC2","name":"accessorUVs"}],"bufferViews":[{"buffer":0,"byteLength":36036,"name":"bufferViewScalar"},{"buffer":0,"byteOffset":36036,"byteLength":432432,"byteStride":12,"name":"bufferViewFloatVec3"},{"buffer":0,"byteOffset":468468,"byteLength":144144,"byteStride":8,"name":"bufferViewFloatVec2"}],"buffers":[{"uri":"04-4.bin","byteLength":612612}],"materials":[{"pbrMetallicRoughness":{"baseColorTexture":{"index":0,"extensions":{"KHR_texture_transform":{"texCoord":0}}},"metallicFactor":0.0,"roughnessFactor":0.7022211},"name":"04-4_defaultMat"}],"textures":[{"sampler":0,"source":0,"name":"04-4.jpg"}],"images":[{"uri":"04-4.jpg"}],"samplers":[{"magFilter":9729,"minFilter":9987}]}