{"asset":{"version":"2.0","generator":"babylon.js glTF exporter for 3dsmax 2021 v20210624.1"},"extensionsUsed":["KHR_texture_transform"],"extensionsRequired":["KHR_texture_transform"],"scene":0,"scenes":[{"nodes":[0]}],"nodes":[{"mesh":0,"translation":[0.00269335951,0.0,0.003062256],"name":"Group25071"}],"meshes":[{"primitives":[{"attributes":{"POSITION":1,"NORMAL":2,"TEXCOORD_0":3},"indices":0,"material":0}],"name":"Group25071"}],"accessors":[{"bufferView":0,"componentType":5123,"count":17982,"type":"SCALAR","name":"accessorIndices"},{"bufferView":1,"componentType":5126,"count":17982,"max":[0.01354828,0.0133079141,0.00635726471],"min":[-0.012442193,-0.0181602482,-0.00162540446],"type":"VEC3","name":"accessorPositions"},{"bufferView":1,"byteOffset":215784,"componentType":5126,"count":17982,"type":"VEC3","name":"accessorNormals"},{"bufferView":2,"componentType":5126,"count":17982,"type":"VEC2","name":"accessorUVs"}],"bufferViews":[{"buffer":0,"byteLength":35964,"name":"bufferViewScalar"},{"buffer":0,"byteOffset":35964,"byteLength":431568,"byteStride":12,"name":"bufferViewFloatVec3"},{"buffer":0,"byteOffset":467532,"byteLength":143856,"byteStride":8,"name":"bufferViewFloatVec2"}],"buffers":[{"uri":"04-9.bin","byteLength":611388}],"materials":[{"pbrMetallicRoughness":{"baseColorTexture":{"index":0,"extensions":{"KHR_texture_transform":{"texCoord":0}}},"metallicFactor":0.0,"roughnessFactor":0.7022211},"name":"04-9_defaultMat"}],"textures":[{"sampler":0,"source":0,"name":"04-9.jpg"}],"images":[{"uri":"04-9.jpg"}],"samplers":[{"magFilter":9729,"minFilter":9987}]}