{"asset":{"version":"2.0","generator":"babylon.js glTF exporter for 3dsmax 2021 v20210624.1"},"extensionsUsed":["KHR_texture_transform"],"extensionsRequired":["KHR_texture_transform"],"scene":0,"scenes":[{"nodes":[0]}],"nodes":[{"mesh":0,"translation":[-4.72126E-05,0.005570181,0.00144209957],"name":"Group8263"}],"meshes":[{"primitives":[{"attributes":{"POSITION":1,"NORMAL":2,"TEXCOORD_0":3},"indices":0,"material":0}],"name":"Group8263"}],"accessors":[{"bufferView":0,"componentType":5123,"count":30048,"type":"SCALAR","name":"accessorIndices"},{"bufferView":1,"componentType":5126,"count":30048,"max":[0.00719684456,0.0124493074,0.00342724333],"min":[-0.007196845,-0.0124493074,-0.00342724333],"type":"VEC3","name":"accessorPositions"},{"bufferView":1,"byteOffset":360576,"componentType":5126,"count":30048,"type":"VEC3","name":"accessorNormals"},{"bufferView":2,"componentType":5126,"count":30048,"type":"VEC2","name":"accessorUVs"}],"bufferViews":[{"buffer":0,"byteLength":60096,"name":"bufferViewScalar"},{"buffer":0,"byteOffset":60096,"byteLength":721152,"byteStride":12,"name":"bufferViewFloatVec3"},{"buffer":0,"byteOffset":781248,"byteLength":240384,"byteStride":8,"name":"bufferViewFloatVec2"}],"buffers":[{"uri":"01-10.bin","byteLength":1021632}],"materials":[{"pbrMetallicRoughness":{"baseColorTexture":{"index":0,"extensions":{"KHR_texture_transform":{"texCoord":0}}},"metallicFactor":0.0,"roughnessFactor":0.3048167},"name":"defaultMat"}],"textures":[{"sampler":0,"source":0,"name":"01-10.jpg"}],"images":[{"uri":"01-10.jpg"}],"samplers":[{"magFilter":9729,"minFilter":9987}]}