{"asset":{"version":"2.0","generator":"babylon.js glTF exporter for 3dsmax 2021 v20210624.1"},"extensionsUsed":["KHR_texture_transform"],"extensionsRequired":["KHR_texture_transform"],"scene":0,"scenes":[{"nodes":[0]}],"nodes":[{"mesh":0,"translation":[-0.00104100956,0.00356894173,0.00137608],"name":"Group45779"}],"meshes":[{"primitives":[{"attributes":{"POSITION":1,"NORMAL":2,"TEXCOORD_0":3},"indices":0,"material":0}],"name":"Group45779"}],"accessors":[{"bufferView":0,"componentType":5123,"count":29988,"type":"SCALAR","name":"accessorIndices"},{"bufferView":1,"componentType":5126,"count":29988,"max":[0.00384153775,0.00318809948,0.00186901994],"min":[-0.00384153775,-0.00318809948,-0.00186901982],"type":"VEC3","name":"accessorPositions"},{"bufferView":1,"byteOffset":359856,"componentType":5126,"count":29988,"type":"VEC3","name":"accessorNormals"},{"bufferView":2,"componentType":5126,"count":29988,"type":"VEC2","name":"accessorUVs"}],"bufferViews":[{"buffer":0,"byteLength":59976,"name":"bufferViewScalar"},{"buffer":0,"byteOffset":59976,"byteLength":719712,"byteStride":12,"name":"bufferViewFloatVec3"},{"buffer":0,"byteOffset":779688,"byteLength":239904,"byteStride":8,"name":"bufferViewFloatVec2"}],"buffers":[{"uri":"01-1.bin","byteLength":1019592}],"materials":[{"pbrMetallicRoughness":{"baseColorTexture":{"index":0,"extensions":{"KHR_texture_transform":{"texCoord":0}}},"metallicFactor":0.0,"roughnessFactor":0.3048167},"name":"d1_1_defaultMat"}],"textures":[{"sampler":0,"source":0,"name":"d1_1.jpg"}],"images":[{"uri":"d1_1.jpg"}],"samplers":[{"magFilter":9729,"minFilter":9987}]}