{"asset":{"version":"2.0","generator":"babylon.js glTF exporter for 3dsmax 2021 v20210624.1"},"extensionsUsed":["KHR_texture_transform"],"extensionsRequired":["KHR_texture_transform"],"scene":0,"scenes":[{"nodes":[0]}],"nodes":[{"mesh":0,"translation":[-0.0008664004,0.00419267965,0.00196110783],"name":"Group17932"}],"meshes":[{"primitives":[{"attributes":{"POSITION":1,"NORMAL":2,"TEXCOORD_0":3},"indices":0,"material":0}],"name":"Group17932"}],"accessors":[{"bufferView":0,"componentType":5123,"count":29988,"type":"SCALAR","name":"accessorIndices"},{"bufferView":1,"componentType":5126,"count":29988,"max":[0.00229954114,0.00331509882,0.00136913685],"min":[-0.00229954114,-0.00331509975,-0.00136913673],"type":"VEC3","name":"accessorPositions"},{"bufferView":1,"byteOffset":359856,"componentType":5126,"count":29988,"type":"VEC3","name":"accessorNormals"},{"bufferView":2,"componentType":5126,"count":29988,"type":"VEC2","name":"accessorUVs"}],"bufferViews":[{"buffer":0,"byteLength":59976,"name":"bufferViewScalar"},{"buffer":0,"byteOffset":59976,"byteLength":719712,"byteStride":12,"name":"bufferViewFloatVec3"},{"buffer":0,"byteOffset":779688,"byteLength":239904,"byteStride":8,"name":"bufferViewFloatVec2"}],"buffers":[{"uri":"01-3.bin","byteLength":1019592}],"materials":[{"pbrMetallicRoughness":{"baseColorTexture":{"index":0,"extensions":{"KHR_texture_transform":{"texCoord":0}}},"metallicFactor":0.0,"roughnessFactor":0.3048167},"name":"01-03_defaultMat"}],"textures":[{"sampler":0,"source":0,"name":"01-03.jpg"}],"images":[{"uri":"01-03.jpg"}],"samplers":[{"magFilter":9729,"minFilter":9987}]}