{"asset":{"version":"2.0","generator":"babylon.js glTF exporter for 3dsmax 2021 v20210624.1"},"extensionsUsed":["KHR_texture_transform"],"extensionsRequired":["KHR_texture_transform"],"scene":0,"scenes":[{"nodes":[0]}],"nodes":[{"mesh":0,"translation":[-1.2297869E-05,0.00471476326,0.00114781293],"name":"Group47749"}],"meshes":[{"primitives":[{"attributes":{"POSITION":1,"NORMAL":2,"TEXCOORD_0":3},"indices":0,"material":0}],"name":"Group47749"}],"accessors":[{"bufferView":0,"componentType":5123,"count":29982,"type":"SCALAR","name":"accessorIndices"},{"bufferView":1,"componentType":5126,"count":29982,"max":[0.004529194,0.00447756751,0.003613389],"min":[-0.004529194,-0.004477568,-0.003613389],"type":"VEC3","name":"accessorPositions"},{"bufferView":1,"byteOffset":359784,"componentType":5126,"count":29982,"type":"VEC3","name":"accessorNormals"},{"bufferView":2,"componentType":5126,"count":29982,"type":"VEC2","name":"accessorUVs"}],"bufferViews":[{"buffer":0,"byteLength":59964,"name":"bufferViewScalar"},{"buffer":0,"byteOffset":59964,"byteLength":719568,"byteStride":12,"name":"bufferViewFloatVec3"},{"buffer":0,"byteOffset":779532,"byteLength":239856,"byteStride":8,"name":"bufferViewFloatVec2"}],"buffers":[{"uri":"01-4.bin","byteLength":1019388}],"materials":[{"pbrMetallicRoughness":{"baseColorTexture":{"index":0,"extensions":{"KHR_texture_transform":{"texCoord":0}}},"metallicFactor":0.0,"roughnessFactor":0.3048167},"name":"defaultMat"}],"textures":[{"sampler":0,"source":0,"name":"01-04.jpg"}],"images":[{"uri":"01-04.jpg"}],"samplers":[{"magFilter":9729,"minFilter":9987}]}