{"asset":{"version":"2.0","generator":"babylon.js glTF exporter for 3dsmax 2021 v20210624.1"},"extensionsUsed":["KHR_texture_transform"],"extensionsRequired":["KHR_texture_transform"],"scene":0,"scenes":[{"nodes":[0]}],"nodes":[{"mesh":0,"translation":[-0.002502123,0.005159831,0.001442218],"name":"Group17150"}],"meshes":[{"primitives":[{"attributes":{"POSITION":1,"NORMAL":2,"TEXCOORD_0":3},"indices":0,"material":0}],"name":"Group17150"}],"accessors":[{"bufferView":0,"componentType":5123,"count":29982,"type":"SCALAR","name":"accessorIndices"},{"bufferView":1,"componentType":5126,"count":29982,"max":[0.00769017637,0.00579501735,0.00297557376],"min":[-0.00769017637,-0.005795017,-0.00297557376],"type":"VEC3","name":"accessorPositions"},{"bufferView":1,"byteOffset":359784,"componentType":5126,"count":29982,"type":"VEC3","name":"accessorNormals"},{"bufferView":2,"componentType":5126,"count":29982,"type":"VEC2","name":"accessorUVs"}],"bufferViews":[{"buffer":0,"byteLength":59964,"name":"bufferViewScalar"},{"buffer":0,"byteOffset":59964,"byteLength":719568,"byteStride":12,"name":"bufferViewFloatVec3"},{"buffer":0,"byteOffset":779532,"byteLength":239856,"byteStride":8,"name":"bufferViewFloatVec2"}],"buffers":[{"uri":"01-7.bin","byteLength":1019388}],"materials":[{"pbrMetallicRoughness":{"baseColorTexture":{"index":0,"extensions":{"KHR_texture_transform":{"texCoord":0}}},"metallicFactor":0.0,"roughnessFactor":0.3048167},"name":"defaultMat"}],"textures":[{"sampler":0,"source":0,"name":"01-07.jpg"}],"images":[{"uri":"01-07.jpg"}],"samplers":[{"magFilter":9729,"minFilter":9987}]}